<?xml version="1.0" encoding="UTF-8" standalone="no"?>
<svg
   fill-rule="evenodd"
   stroke-width="27"
   aria-label="Logo"
   viewBox="0 0 1493 391"
   version="1.1"
   id="svg44"
   sodipodi:docname="hugo-logo-wide.svg"
   xml:space="preserve"
   inkscape:version="1.2.1 (9c6d41e410, 2022-07-14)"
   xmlns:inkscape="http://www.inkscape.org/namespaces/inkscape"
   xmlns:sodipodi="http://sodipodi.sourceforge.net/DTD/sodipodi-0.dtd"
   xmlns:xlink="http://www.w3.org/1999/xlink"
   xmlns="http://www.w3.org/2000/svg"
   xmlns:svg="http://www.w3.org/2000/svg"><defs
     id="defs48"><linearGradient
       gradientUnits="userSpaceOnUse"
       gradientTransform="scale(1.0663,0.93783)"
       id="a"
       y2="1.019"
       x2="116.889"
       y1="219.859"
       x1="116.889"><stop
         offset="0%"
         stop-color="#78D431"
         id="stop118" /><stop
         offset="100%"
         stop-color="#9EEE69"
         id="stop120" /><stop
         offset="100%"
         stop-color="#9EEE69"
         id="stop122" /></linearGradient><linearGradient
       gradientUnits="userSpaceOnUse"
       gradientTransform="scale(1.06066,0.9428)"
       id="b"
       y2="99.632"
       x2="226.919"
       y1="282.247"
       x1="226.919"><stop
         offset="0%"
         stop-color="#E4E6E6"
         id="stop125" /><stop
         offset="100%"
         stop-color="#F5F5FF"
         id="stop127" /></linearGradient></defs><sodipodi:namedview
     id="namedview46"
     pagecolor="#ffffff"
     bordercolor="#000000"
     borderopacity="0.25"
     inkscape:showpageshadow="2"
     inkscape:pageopacity="0.0"
     inkscape:pagecheckerboard="0"
     inkscape:deskcolor="#d1d1d1"
     showgrid="false"
     inkscape:zoom="0.90890824"
     inkscape:cx="745.94989"
     inkscape:cy="195.83935"
     inkscape:window-width="1920"
     inkscape:window-height="1011"
     inkscape:window-x="0"
     inkscape:window-y="0"
     inkscape:window-maximized="1"
     inkscape:current-layer="svg44" /><g
     id="g116"
     transform="translate(71.416182,61.35517)"><path
       d="m 266.62575,133.50613 c 0,-73.52485 -59.60353,-133.1303 -133.12783,-133.1303 -73.49124,0 -133.07153,59.5554 -133.12367,133.03642 V 236.4333 c 0.03955,16.68433 13.5712,30.19087 30.26602,30.19087 h 102.91165 c 73.49975,-0.0288 133.07383,-59.61275 133.07383,-133.11804"
       id="voice"
       style="fill:#294172" /><path
       d="m 77.126289,142.09756 c 0,0 47.844751,0 47.844751,0 0,0 0,47.84478 0,47.84478 0,26.41029 -21.43445,47.84473 -47.844751,47.84473 -26.41031,0 -47.844759,-21.43444 -47.844759,-47.84473 0,-26.41031 21.434449,-47.84478 47.844759,-47.84478 z"
       id="in"
       style="fill:none;stroke:#3c6eb4;stroke-width:29.21" /><use
       transform="rotate(180,124.85576,142.1441)"
       id="finity"
       xlink:href="#in" /><path
       d="m 139.6074,127.52923 v 62.34618 c 0,34.50402 -27.97537,62.48 -62.48061,62.48 -5.23494,0 -8.95649,-0.59101 -13.80235,-1.8577 -7.06595,-1.84912 -12.84046,-7.64253 -12.84286,-14.38111 0,-8.14513 5.91236,-14.0699 14.75029,-14.0699 4.20637,0 5.73267,0.80765 11.89492,0.80765 18.19161,0 32.94764,-14.73519 32.97955,-32.92679 v -28.65657 c 0,-2.56775 -2.08663,-4.64825 -4.65867,-4.64825 l -21.66521,-0.004 c -8.07212,0 -14.59401,-6.43843 -14.59401,-14.53266 -0.0043,-8.14456 6.5888,-14.55657 14.74808,-14.55657"
       id="free"
       style="fill:#ffffff" /><use
       transform="rotate(180,124.85576,142.1441)"
       id="dom"
       xlink:href="#free" /><path
       d="m 243.65456,243.58425 c 0,0 4e-5,-5.53139 4e-5,-5.53139 l -2.52853,5.79776 c 0,0 -2.46141,-5.79776 -2.46141,-5.79776 l 4.7e-4,5.53139 h -1.4183 v -8.73492 h 1.48704 c 0,0 2.43397,5.58051 2.43397,5.58051 l 2.39711,-5.58051 h 1.50544 v 8.73492 z m -10.33302,-7.27184 v 7.27184 h -1.48213 v -7.27184 h -2.48488 v -1.46308 h 6.44946 v 1.46308"
       id="TM"
       style="fill:#3c6eb4" /></g><g
     fill-rule="evenodd"
     fill="none"
     id="g142"
     transform="matrix(0.79376813,0,0,0.79376813,447.88021,91.72441)"><path
       fill="url(#a)"
       d="m 0,103.374 c 0,31.012 16.907,59.345 43.037,78.105 2.306,1.531 3.458,3.829 3.458,6.892 0,0.765 -0.384,1.914 -0.384,2.68 -1.921,7.657 -5.38,20.292 -5.764,20.675 -0.384,1.148 -0.768,1.914 -0.768,3.062 0,2.298 1.921,4.212 4.227,4.212 0.768,0 1.537,-0.383 2.305,-0.766 l 27.283,-15.697 c 1.92,-1.149 4.226,-1.915 6.532,-1.915 1.153,0 2.69,0 3.843,0.383 12.68,3.829 26.513,5.743 40.731,5.743 68.782,0 124.5,-46.327 124.5,-103.374 C 249,46.327 193.282,0 124.5,0 55.718,0 0,46.327 0,103.374"
       id="path132"
       style="fill:url(#a)" /><path
       fill="url(#b)"
       d="m 240.5,267.585 c 11.883,0 23.383,-1.543 33.733,-4.629 0.767,-0.386 1.917,-0.386 3.067,-0.386 1.917,0 3.833,0.772 5.367,1.543 l 22.616,13.116 c 0.767,0.385 1.15,0.771 1.917,0.771 a 3.447,3.447 0 0 0 3.45,-3.472 c 0,-0.771 -0.383,-1.543 -0.383,-2.7 0,-0.386 -3.067,-10.8 -4.6,-17.358 -0.384,-0.772 -0.384,-1.543 -0.384,-2.315 0,-2.314 1.15,-4.243 3.067,-5.786 C 330.2,230.553 344,207.023 344,180.792 344,132.96 297.617,94 240.5,94 183.383,94 137,132.574 137,180.792 c 0,47.833 46.383,86.793 103.5,86.793 z"
       id="path134"
       style="fill:url(#b)" /><path
       fill="#187e28"
       d="m 99,70 c 0,8.93 -7.07,16 -16,16 -8.93,0 -16,-7.07 -16,-16 0,-8.93 7.07,-16 16,-16 8.93,0 16,7.07 16,16 m 83,0 c 0,8.93 -7.07,16 -16,16 -8.93,0 -16,-7.07 -16,-16 0,-8.93 7.07,-16 16,-16 8.93,0 16,7.07 16,16"
       id="path136" /><path
       fill="#858c8c"
       d="m 262,154 c 0,7.778 6.222,14 14,14 7.778,0 14,-6.222 14,-14 0,-7.778 -6.222,-14 -14,-14 -7.778,0 -14,6.222 -14,14 m -69,0 c 0,7.778 6.222,14 14,14 7.778,0 14,-6.222 14,-14 0,-7.778 -6.222,-14 -14,-14 -7.778,0 -14,6.222 -14,14"
       id="path138" /><path
       d="m 614.63,49.056 h -13.74 c 0,0 -30.26,103.633 -31.383,107.6 -4.483,15.838 -8.386,29.628 -11.357,43.573 -2.838,-16.462 -7.954,-36.022 -13.389,-56.288 L 519.72,49.576 519.583,49.056 H 507 l -27.688,95.612 c -6.57,21.392 -12.26,40.428 -15.135,55.664 -2.855,-13.433 -7.06,-30.006 -11.507,-47.502 L 426.07,49.58 425.937,49.056 H 412.22 l 44.797,169.574 0.137,0.523 h 12.33 l 28.943,-97.61 c 7.231,-23.854 11.794,-39.97 14.557,-54.5 2.41,15.593 6.508,31.996 12.637,54.472 l 25.428,97.638 h 12.583 l 50.728,-169.2 z m 12.126,97.864 c 2.543,-18.933 14.336,-40.645 39.515,-40.645 10.032,0 18.147,3.07 24.115,9.122 9.844,9.99 11.016,24.889 11,31.523 z m 41.015,-52.06 c -32.767,0 -54.779,26.43 -54.779,65.775 0,36.495 22.823,61.015 56.786,61.015 21.684,0 33.902,-5.483 38.144,-7.842 l 0.624,-0.345 -5.527,-9.566 -0.578,0.261 c -6.362,2.887 -15.039,5.836 -31.162,5.836 -13.502,0 -44.814,-5.096 -45.122,-52.167 h 88.497 l 0.125,-0.548 c 0.515,-2.326 0.515,-4.129 0.515,-7.41 0,-4.511 -0.631,-20.304 -8.768,-33.986 C 698.227,101.934 685.191,94.86 667.771,94.86 Z M 1130.06,71.087 h -13.42 v 26.526 h -20.278 v 11.16 h 20.279 v 75.138 c 0,13.803 2.514,23.37 7.659,29.214 4.496,5.74 11.785,8.777 21.085,8.777 6.682,0 12.882,-1.69 17.52,-3.722 l -5.09,-8.947 c -2.964,0.602 -7.12,1.283 -11.084,1.283 -11.323,0 -16.672,-8.15 -16.672,-24.353 v -77.39 h 31.271 v -11.16 h -31.27 z M 852.943,203.316 c -9.824,4.24 -22.748,6.675 -35.456,6.675 -44.244,0 -70.657,-27.901 -70.657,-74.635 0,-48.462 27.16,-77.389 72.66,-77.389 12.25,0 24.015,2.289 33.137,6.447 l 0.573,0.266 6.042,-10.447 -0.627,-0.345 c -3.25,-1.782 -15.692,-7.58 -39.374,-7.58 -51.637,0 -86.332,35.684 -86.332,88.799 0,63.88 43.405,86.543 80.572,86.543 25.835,0 41.082,-6.3 45.142,-8.232 l 0.682,-0.324 -5.789,-10.028 z m 160.208,-36.125 c 8.594,-8.349 24.398,-12.57 47.016,-12.57 1.596,0 3.23,0.022 4.896,0.063 v 25.097 c 0,1.824 -0.212,4.515 -1.222,7.033 -3.865,11.385 -15.068,23.551 -34.886,23.551 -17.23,0 -23.342,-13.105 -23.342,-24.324 0,-7.647 2.54,-13.99 7.538,-18.85 m 65.6,35.743 c -0.187,-3.979 -0.274,-8.278 -0.274,-13.142 v -47.05 c 0,-31.402 -14.615,-48 -42.262,-48 -12.488,0 -26.318,4.199 -36.179,10.695 l 4.33,10.098 c 8.02,-5.728 19.345,-9.388 30.602,-9.388 9.217,-0.004 16.39,2.393 21.385,7.344 5.863,5.807 8.71,14.721 8.71,27.253 v 2.542 c -0.49,0 -0.977,-0.004 -1.463,-0.004 -28.703,0 -49.223,5.91 -61.02,17.579 -7.219,7.148 -10.884,16.29 -10.884,27.186 0,16.246 11.27,33.733 36.008,33.733 17.81,0 30.934,-9.213 37.754,-18.368 0.415,7.855 3.012,15.614 3.012,15.614 l 14.528,-0.02 c 0,0 -3.353,-6.83 -4.247,-16.072 M 931.566,94.86 c -8.885,0 -17.408,2.463 -24.635,7.103 -6.258,3.572 -11.914,9.362 -15.724,16.046 V 46.306 h -13.419 v 172.847 h 13.419 v -74.037 c 0,-4.906 0.228,-8.075 1.462,-11.78 5.565,-15.639 20.226,-26.563 35.651,-26.563 12.076,0 32.343,5.275 32.343,40.603 v 71.777 h 13.418 v -73.036 c 0,-48.786 -35.413,-51.257 -42.515,-51.257"
       fill="#4d4d4d"
       id="path140" /></g></svg>
