<?xml version="1.0" encoding="UTF-8" standalone="no"?>
<!-- Created with Inkscape (http://www.inkscape.org/) -->

<svg
   width="1128"
   height="376"
   viewBox="0 0 1128 376"
   version="1.1"
   id="svg5"
   inkscape:version="1.2.1 (9c6d41e410, 2022-07-14)"
   sodipodi:docname="go-image-processing.svg"
   xml:space="preserve"
   xmlns:inkscape="http://www.inkscape.org/namespaces/inkscape"
   xmlns:sodipodi="http://sodipodi.sourceforge.net/DTD/sodipodi-0.dtd"
   xmlns="http://www.w3.org/2000/svg"
   xmlns:svg="http://www.w3.org/2000/svg"><sodipodi:namedview
     id="namedview7"
     pagecolor="#ffffff"
     bordercolor="#666666"
     borderopacity="1.0"
     inkscape:pageshadow="2"
     inkscape:pageopacity="0.0"
     inkscape:pagecheckerboard="0"
     inkscape:document-units="px"
     showgrid="false"
     inkscape:zoom="1.1861702"
     inkscape:cx="565.6861"
     inkscape:cy="256.287"
     inkscape:window-width="2560"
     inkscape:window-height="1371"
     inkscape:window-x="0"
     inkscape:window-y="0"
     inkscape:window-maximized="1"
     inkscape:current-layer="layer1"
     inkscape:showpageshadow="2"
     inkscape:deskcolor="#d1d1d1" /><defs
     id="defs2" /><g
     inkscape:label="Layer 1"
     inkscape:groupmode="layer"
     id="layer1"><g
       id="g313"
       transform="matrix(0.45364613,0,0,0.45364613,57.416987,79.085623)">
	
		<path
   fill="#ffffff"
   stroke="#000000"
   stroke-width="6"
   stroke-linecap="round"
   stroke-linejoin="round"
   stroke-miterlimit="10"
   d="m 436.316,240.087 c 7.732,0.02 13.162,-2.095 15.106,-9.772 1.842,-7.273 -1.433,-16.621 -9.982,-17.971 -4.987,-0.788 -16.906,-0.177 -28.067,1.593 2.595,7.532 4.938,15.74 7.021,24.484 6.062,1.042 11.675,1.655 15.922,1.666 z"
   id="path263" />
	
		<path
   fill="#ffffff"
   stroke="#000000"
   stroke-width="6"
   stroke-linecap="round"
   stroke-linejoin="round"
   stroke-miterlimit="10"
   d="m 451.762,472.396 c -8.434,-9.021 -20.476,-14.647 -33.413,-15.726 -4.126,10.828 -9.124,19.561 -14.866,26.967 11.273,1.652 18.73,6.738 27.623,12.456 13.666,8.785 33.01,-10.481 20.656,-23.697 z"
   id="path265" />
	
		<path
   fill="#ffffff"
   stroke="#000000"
   stroke-width="6"
   stroke-linecap="round"
   stroke-linejoin="round"
   stroke-miterlimit="10"
   d="m 171.953,586.341 c -0.258,20.1 29.262,20.428 35.16,3.369 3.471,-10.039 6.272,-18.821 13.216,-27.204 -12.122,-0.898 -24.108,-3.423 -35.536,-8.071 -7.801,10.009 -12.696,20.644 -12.84,31.906 z"
   id="path267" />
	
		<path
   fill="#d0b698"
   stroke="#000000"
   stroke-width="6"
   stroke-linecap="round"
   stroke-linejoin="round"
   stroke-miterlimit="10"
   d="m 37.701,180.366 c -6.229,0.655 -11.809,-3.871 -12.465,-10.108 -0.656,-6.238 3.862,-11.825 10.091,-12.479 1.456,-0.153 2.872,-0.013 4.203,0.355 -0.407,-8.924 -0.016,-17.19 1.119,-24.897 -24.907,0.93 -36.32,15.463 -37.555,33.129 -1.31,18.742 11.141,37.468 34.561,39.105 3.651,0.255 6.895,0.049 9.774,-0.552 -2.455,-9.115 -4.338,-17.702 -5.655,-25.792 -1.234,0.647 -2.604,1.085 -4.073,1.239 z"
   id="path269" />
	<path
   d="m 35.327,157.778 c -6.229,0.655 -10.747,6.242 -10.091,12.479 0.656,6.237 6.237,10.763 12.465,10.108 1.469,-0.154 2.839,-0.592 4.073,-1.239 -1.204,-7.39 -1.942,-14.372 -2.244,-20.994 -1.331,-0.367 -2.747,-0.507 -4.203,-0.354 z"
   id="path271" />
	
		<path
   fill="#d0b698"
   stroke="#000000"
   stroke-width="6"
   stroke-linecap="round"
   stroke-linejoin="round"
   stroke-miterlimit="10"
   d="m 309.592,37.468 c 0.511,-0.68 1.096,-1.317 1.774,-1.887 4.798,-4.025 11.957,-3.395 15.987,1.41 3.967,4.729 3.42,11.73 -1.172,15.788 5.61,5.714 11.18,11.979 16.583,18.841 1.701,-1.844 3.317,-4.046 4.827,-6.66 11.736,-20.332 3.176,-41.127 -13.096,-50.521 -14.119,-8.151 -30.859,-7.664 -44.898,8.169 1.848,1.18 3.665,2.401 5.448,3.66 4.725,3.335 9.604,7.07 14.547,11.2 z"
   id="path273" />
	<path
   d="m 327.354,36.992 c -4.03,-4.805 -11.189,-5.436 -15.987,-1.41 -0.679,0.57 -1.264,1.207 -1.774,1.887 5.49,4.587 11.059,9.677 16.59,15.312 4.591,-4.059 5.138,-11.061 1.171,-15.789 z"
   id="path275" />
	
		<path
   fill="#ffffff"
   stroke="#000000"
   stroke-width="6"
   stroke-linecap="round"
   stroke-linejoin="round"
   stroke-miterlimit="10"
   d="m 127.003,523.285 c 1.946,4.361 12.639,4.612 19.787,-0.134 -3.704,-6.098 -6.562,-12.668 -8.77,-19.531 -7.613,5.026 -14.067,12.826 -11.017,19.665 z"
   id="path277" />
	
		<path
   fill="#d0b698"
   stroke="#000000"
   stroke-width="6"
   stroke-linecap="round"
   stroke-linejoin="round"
   stroke-miterlimit="10"
   d="m 420.393,238.421 c -2.082,-8.744 -4.426,-16.952 -7.021,-24.484 -6.519,-18.921 -14.621,-33.558 -24.152,-41.551 -9.144,-42.65 -26.687,-75.661 -46.455,-100.765 -5.403,-6.861 -10.973,-13.127 -16.583,-18.841 -5.531,-5.635 -11.1,-10.724 -16.59,-15.312 -4.943,-4.13 -9.822,-7.865 -14.546,-11.199 -1.783,-1.259 -3.601,-2.479 -5.448,-3.66 -38.035,-24.282 -89.932,-31.174 -159.703,9.577 -48.626,28.401 -82.414,54.617 -89.247,101.05 -1.134,7.708 -1.525,15.973 -1.119,24.897 0.302,6.622 1.041,13.604 2.244,20.994 1.317,8.089 3.201,16.676 5.655,25.792 2.433,9.035 5.425,18.587 9.033,28.736 12.141,34.149 34.259,66.99 46.802,85.997 12.709,19.258 24.75,54.917 26.631,90.017 1.416,26.414 -1.781,63.135 8.125,93.951 2.207,6.863 5.066,13.434 8.77,19.531 6.542,10.775 15.719,20.08 28.625,26.918 3.076,1.629 6.207,3.075 9.378,4.365 11.428,4.648 23.415,7.173 35.536,8.071 50.471,3.739 103.228,-20.578 127.21,-35.837 22.083,-14.049 41.403,-24.279 55.943,-43.031 5.742,-7.406 10.74,-16.139 14.866,-26.967 4.834,-12.688 8.474,-28.246 10.716,-47.902 6.42,-56.267 2.939,-121.584 -8.67,-170.347 z"
   id="path279" />
	
		<ellipse
   fill="#ffffff"
   stroke="#000000"
   stroke-width="6"
   stroke-linecap="round"
   stroke-linejoin="round"
   stroke-miterlimit="10"
   cx="235.646"
   cy="67.681"
   rx="52.200001"
   ry="51.299999"
   id="ellipse281" />
	
		<ellipse
   fill="#ffffff"
   stroke="#000000"
   stroke-width="6"
   stroke-linecap="round"
   stroke-linejoin="round"
   stroke-miterlimit="10"
   cx="118.851"
   cy="127.081"
   rx="52.200001"
   ry="51.299999"
   id="ellipse283" />
	<circle
   cx="263.996"
   cy="59.581001"
   r="16.200001"
   id="circle285" />
	<circle
   fill="#ffffff"
   cx="272.09601"
   cy="60.480999"
   r="3.5999999"
   id="circle287" />
	<circle
   cx="146.095"
   cy="116.281"
   r="16.200001"
   id="circle289" />
	<circle
   fill="#ffffff"
   cx="154.196"
   cy="117.181"
   r="3.5999999"
   id="circle291" />
	
		<path
   fill="#ffffff"
   stroke="#000000"
   stroke-width="6"
   stroke-linecap="round"
   stroke-linejoin="round"
   stroke-miterlimit="10"
   d="m 213.083,169.078 c -9.664,4.506 -9.3,9.495 -16.832,14.72 2.005,5.293 4.714,12.359 7.977,20.67 7.355,18.729 28.819,4.246 23.938,-6.716 -3.579,-8.041 -9.976,-22.408 -13.135,-29.504 -0.623,0.243 -1.268,0.513 -1.948,0.83 z"
   id="path293" />
	
		<path
   fill="#ffffff"
   stroke="#000000"
   stroke-width="6"
   stroke-linecap="round"
   stroke-linejoin="round"
   stroke-miterlimit="10"
   d="m 238.975,164.35 c -11.064,4.464 -14.537,0.238 -23.943,3.898 3.159,7.096 9.556,21.463 13.135,29.504 4.881,10.962 30.008,4.701 21.009,-13.295 -4.086,-8.173 -7.59,-15.04 -10.201,-20.107 z"
   id="path295" />
	
		<path
   fill="#ffffff"
   stroke="#000000"
   stroke-width="6"
   stroke-linecap="round"
   stroke-linejoin="round"
   stroke-miterlimit="10"
   d="m 321.989,287.733 c -6.821,-3.034 -19.595,-4.724 -31.342,-3.582 -1.084,5.841 -3.293,11.6 -7.715,17.345 9.811,5.708 19.227,9.624 26.928,11.71 7.463,2.02 13.256,1.383 17.121,-5.529 3.662,-6.549 2.918,-16.427 -4.992,-19.944 z"
   id="path297" />
	<path
   fill="none"
   stroke="#000000"
   stroke-width="6"
   stroke-linecap="round"
   stroke-linejoin="round"
   stroke-miterlimit="10"
   d="m 265.866,316.368 c 7.809,-4.978 13.256,-9.92 17.066,-14.872 4.422,-5.745 6.631,-11.503 7.715,-17.345 0.854,-4.598 1.018,-9.247 1.018,-13.982"
   id="path299" />
	
		<path
   fill="#ac967b"
   stroke="#000000"
   stroke-width="6"
   stroke-linecap="round"
   stroke-linejoin="round"
   stroke-miterlimit="10"
   d="m 241.202,134.614 c -5.883,-2.508 -11.642,-2.739 -18.45,-1.058 -1.165,6.392 -7.955,13.579 -17.718,17.926 -9.39,4.181 -18.893,4.561 -24.525,1.549 -6.176,4.299 -9.948,9.01 -11.901,15.435 -3.831,12.607 6.071,24.543 16.988,20.563 4.838,-1.764 8.174,-3.511 10.656,-5.232 7.532,-5.225 7.168,-10.214 16.832,-14.72 0.68,-0.317 1.325,-0.587 1.949,-0.83 9.406,-3.66 12.879,0.566 23.943,-3.898 2.062,-0.832 4.381,-1.959 7.059,-3.503 10.066,-5.805 7.288,-21.062 -4.833,-26.232 z"
   id="path301" />
	<path
   d="m 205.034,151.482 c 9.763,-4.347 16.553,-11.534 17.718,-17.926 0.352,-1.932 0.196,-3.792 -0.554,-5.479 -3.234,-7.265 -16.163,-8.566 -28.878,-2.906 -12.714,5.661 -20.399,16.141 -17.165,23.405 0.846,1.9 2.359,3.388 4.354,4.454 5.632,3.012 15.135,2.633 24.525,-1.548 z"
   id="path303" />
	<path
   fill="none"
   stroke="#000000"
   stroke-width="6"
   stroke-linecap="round"
   stroke-linejoin="round"
   stroke-miterlimit="10"
   d="m 451.858,227.863 c -4.442,-0.877 -10.908,-1.992 -16.275,-2.222"
   id="path305" />
	<path
   fill="none"
   stroke="#000000"
   stroke-width="6"
   stroke-linecap="round"
   stroke-linejoin="round"
   stroke-miterlimit="10"
   d="m 450.958,492.011 c -1.538,-4.26 -5.707,-12.555 -14.208,-16.149"
   id="path307" />
	<path
   fill="none"
   stroke="#000000"
   stroke-width="6"
   stroke-linecap="round"
   stroke-linejoin="round"
   stroke-miterlimit="10"
   d="m 186.405,600.925 c -1.581,-4.777 -3.198,-13.379 0.462,-23.578"
   id="path309" />
	<path
   fill="none"
   stroke="#000000"
   stroke-width="6"
   stroke-linecap="round"
   stroke-linejoin="round"
   stroke-miterlimit="10"
   d="m 328.036,305.421 c -4.063,-1.998 -10.02,-4.748 -15.145,-6.359"
   id="path311" />
</g><text
       xml:space="preserve"
       style="font-size:96px;fill:#000000"
       x="298.54486"
       y="104.75215"
       id="text454"><tspan
         sodipodi:role="line"
         id="tspan452"
         x="298.54486"
         y="104.75215"
         style="font-style:italic;font-variant:normal;font-weight:bold;font-stretch:normal;font-size:96px;font-family:'Ubuntu Mono';-inkscape-font-specification:'Ubuntu Mono Bold Italic'">Go Image</tspan><tspan
         sodipodi:role="line"
         x="298.54486"
         y="229.35312"
         style="font-style:italic;font-variant:normal;font-weight:bold;font-stretch:normal;font-size:96px;font-family:'Ubuntu Mono';-inkscape-font-specification:'Ubuntu Mono Bold Italic'"
         id="tspan506">Processing <tspan
   style="font-size:74.6667px"
   id="tspan390">[basic]</tspan></tspan></text><text
       xml:space="preserve"
       style="font-style:italic;font-variant:normal;font-weight:bold;font-stretch:normal;font-size:37.3333px;font-family:'Ubuntu Mono';-inkscape-font-specification:'Ubuntu Mono Bold Italic';fill:#000000"
       x="832.63635"
       y="342.86093"
       id="text510"><tspan
         sodipodi:role="line"
         id="tspan508"
         x="832.63635"
         y="342.86093"
         style="font-style:italic;font-variant:normal;font-weight:normal;font-stretch:normal;font-size:37.3333px;font-family:'Ubuntu Mono';-inkscape-font-specification:'Ubuntu Mono Italic'">by Aimer Neige</tspan></text></g></svg>
