<?xml version="1.0" encoding="UTF-8" standalone="no"?>
<!-- Created with Inkscape (http://www.inkscape.org/) -->

<svg
   width="1128"
   height="376"
   viewBox="0 0 1128 376"
   version="1.1"
   id="svg5"
   inkscape:version="1.1.1 (3bf5ae0d25, 2021-09-20)"
   sodipodi:docname="spring_vscode.svg"
   xmlns:inkscape="http://www.inkscape.org/namespaces/inkscape"
   xmlns:sodipodi="http://sodipodi.sourceforge.net/DTD/sodipodi-0.dtd"
   xmlns="http://www.w3.org/2000/svg"
   xmlns:svg="http://www.w3.org/2000/svg">
  <sodipodi:namedview
     id="namedview7"
     pagecolor="#ffffff"
     bordercolor="#666666"
     borderopacity="1.0"
     inkscape:pageshadow="2"
     inkscape:pageopacity="0.0"
     inkscape:pagecheckerboard="0"
     inkscape:document-units="px"
     showgrid="false"
     inkscape:zoom="1.1861702"
     inkscape:cx="564.42152"
     inkscape:cy="255.44395"
     inkscape:window-width="2560"
     inkscape:window-height="1355"
     inkscape:window-x="0"
     inkscape:window-y="0"
     inkscape:window-maximized="1"
     inkscape:current-layer="layer1" />
  <defs
     id="defs2" />
  <g
     inkscape:label="Layer 1"
     inkscape:groupmode="layer"
     id="layer1">
    <g
       id="g15"
       style="fill:#6db33f"
       transform="translate(162.16595,57.103091)">
      <path
         d="M 244.89637,54.566879 74.628483,1.6100827 C 66.396638,-0.94984007 57.549199,3.6382532 54.969276,11.806285 L 1.5987549,180.75427 c -2.57992221,8.16902 2.0440155,16.94689 10.2758601,19.50681 L 182.1435,253.21787 c 8.23185,2.55993 17.07829,-2.02817 19.65821,-10.1962 L 255.17223,74.0727 c 2.58092,-8.168032 -2.04401,-16.945898 -10.27586,-19.505821 z M 81.598257,180.53584 c 0,7.21819 -5.951751,13.1238 -13.226335,13.1238 h -0.04881 c -7.273588,0 -13.225339,-5.90561 -13.225339,-13.1238 v -67.2469 c 0,-7.21819 5.951751,-13.12282 13.225339,-13.12282 h 0.04881 c 7.274584,0 13.226335,5.90463 13.226335,13.12282 z M 68.348016,87.244936 c -7.348296,0 -13.305028,-5.910555 -13.305028,-13.200899 0,-7.291332 5.956732,-13.201888 13.305028,-13.201888 7.347299,0 13.304031,5.910556 13.304031,13.201888 0,7.290344 -5.956732,13.200899 -13.304031,13.200899 z M 152.61086,193.61615 c -33.11663,0 -59.916946,-27.19547 -59.916946,-60.05539 0,-32.86091 26.847126,-59.498932 59.964766,-59.498932 17.05537,0 32.44825,7.064991 43.3666,18.407722 l 6.40498,-11.24488 c 6.56834,17.583407 10.84563,38.12407 10.84563,52.22045 0,32.85992 -27.54739,60.17103 -60.66503,60.17103 z"
         id="path9" />
      <path
         d="m 129.95536,174.31888 c 6.43586,-2.00247 13.29706,-4.1107 19.03564,-5.9491 22.66049,-7.26069 42.14039,-25.53993 47.29028,-48.50016 -4.09899,10.80109 -20.83462,31.9002 -47.04424,40.30643 -8.40915,2.64591 -17.13208,4.32123 -25.74543,6.29504 -1.10668,0.25401 -2.62375,-0.0287 -3.59595,-0.62862 -5.52044,-3.40598 -8.49482,-9.49939 -8.96399,-15.64716 -1.26506,-16.54164 10.05772,-30.04103 26.88897,-33.53597 7.06839,-1.46875 14.34596,-1.08624 21.56675,-1.85323 19.07051,-1.9916 36.99649,-15.540409 42.41133,-26.866338 0,0 0.97221,2.207069 1.18139,2.857427 4.09301,12.722521 7.35626,25.614051 7.67402,39.060071 0.17133,7.26267 -0.63053,14.41168 -3.21842,21.27306 -5.20268,13.79096 -15.82419,20.7838 -30.01377,22.42947 -8.29559,0.9617 -16.73861,0.75018 -25.11788,0.9103 -6.80043,0.12948 -14.67069,-0.15122 -22.3487,-0.15122"
         id="path11" />
      <path
         d="m 121.5223,175.01273 c 0,2.80405 -2.29005,5.07635 -5.11601,5.07635 -2.82596,0 -5.11602,-2.2723 -5.11602,-5.07635 0,-2.80406 2.29006,-5.07636 5.11602,-5.07636 2.82596,0 5.11601,2.2723 5.11601,5.07636"
         id="path13" />
    </g>
    <g
       id="g220"
       transform="matrix(3.5136791,0,0,3.5136791,479.09732,120.1238)">
      <path
         fill="#4caf50"
         d="M 44,24 C 44,35.045 35.045,44 24,44 12.955,44 4,35.045 4,24 4,12.955 12.955,4 24,4 35.045,4 44,12.955 44,24 Z"
         id="path205" />
      <path
         fill="#ffffff"
         d="m 21,14 h 6 v 20 h -6 z"
         id="path207" />
      <path
         fill="#ffffff"
         d="m 14,21 h 20 v 6 H 14 Z"
         id="path209" />
    </g>
    <g
       id="g452"
       transform="matrix(0.27751926,0,0,0.27751926,719.23628,53.807024)">
      <path
         d="m 12.1,353.9 c 0,0 -24,-17.3 4.8,-40.4 l 67.1,-60 c 0,0 19.2,-20.2 39.5,-2.6 l 619.2,468.8 v 224.8 c 0,0 -0.3,35.3 -45.6,31.4 z"
         fill="#2489ca"
         id="path434" />
      <path
         d="M 171.7,498.8 12.1,643.9 c 0,0 -16.4,12.2 0,34 l 74.1,67.4 c 0,0 17.6,18.9 43.6,-2.6 L 299,614.4 Z"
         fill="#1070b3"
         id="path436" />
      <path
         d="M 451.9,500 744.6,276.5 742.7,52.9 c 0,0 -12.5,-48.8 -54.2,-23.4 L 299,384 Z"
         fill="#0877b9"
         id="path438" />
      <path
         d="m 697.1,976.2 c 17,17.4 37.6,11.7 37.6,11.7 L 962.8,875.5 c 29.2,-19.9 25.1,-44.6 25.1,-44.6 V 159.7 C 987.9,130.2 957.7,120 957.7,120 L 760,24.7 c -43.2,-26.7 -71.5,4.8 -71.5,4.8 0,0 36.4,-26.2 54.2,23.4 v 887.5 c 0,6.1 -1.3,12.1 -3.9,17.5 -5.2,10.5 -16.5,20.3 -43.6,16.2 z"
         fill="#3c99d4"
         id="path440" />
    </g>
  </g>
</svg>
