<?xml version="1.0" encoding="UTF-8" standalone="no"?>
<!-- Created with Inkscape (http://www.inkscape.org/) -->

<svg
   width="1128"
   height="376"
   viewBox="0 0 1128 376"
   version="1.1"
   id="svg5"
   inkscape:version="1.1.1 (3bf5ae0d25, 2021-09-20)"
   sodipodi:docname="spring_swagger.svg"
   xmlns:inkscape="http://www.inkscape.org/namespaces/inkscape"
   xmlns:sodipodi="http://sodipodi.sourceforge.net/DTD/sodipodi-0.dtd"
   xmlns="http://www.w3.org/2000/svg"
   xmlns:svg="http://www.w3.org/2000/svg">
  <sodipodi:namedview
     id="namedview7"
     pagecolor="#ffffff"
     bordercolor="#666666"
     borderopacity="1.0"
     inkscape:pageshadow="2"
     inkscape:pageopacity="0.0"
     inkscape:pagecheckerboard="0"
     inkscape:document-units="px"
     showgrid="false"
     inkscape:zoom="1.1861702"
     inkscape:cx="564.42153"
     inkscape:cy="188"
     inkscape:window-width="2560"
     inkscape:window-height="1355"
     inkscape:window-x="0"
     inkscape:window-y="0"
     inkscape:window-maximized="1"
     inkscape:current-layer="layer1" />
  <defs
     id="defs2" />
  <g
     inkscape:label="Layer 1"
     inkscape:groupmode="layer"
     id="layer1">
    <g
       id="g39"
       transform="matrix(0.85735369,0,0,0.85735369,824.6546,81.37545)">
      <path
         d="M 127.05966,255.99692 C 58.850654,255.52647 -0.45707362,198.91844 0.00265506,126.9983 0.4446494,57.795863 57.95166,-0.46896758 129.11002,0.00284555 198.26713,0.46238608 256.61311,57.866771 255.99514,128.1942 c 0.57295,69.68925 -58.06087,128.29499 -128.93548,127.80272 z m 0,0 C 58.850654,255.52647 -0.45707362,198.91844 0.00265506,126.9983 0.4446494,57.795863 57.95166,-0.46896758 129.11002,0.00284555 198.26713,0.46238608 256.61311,57.866771 255.99514,128.1942 c 0.57295,69.68925 -58.06087,128.29499 -128.93548,127.80272 z"
         fill="#ffffff"
         id="path33" />
      <path
         d="M 127.18464,238.99733 C 68.032376,238.58927 16.603609,189.49874 17.002303,127.13143 17.386028,67.118595 67.2554,16.591711 128.96312,17.002487 c 59.97142,0.398535 110.56878,50.180037 110.03266,111.166763 0.49666,60.43313 -50.34835,111.25518 -111.81114,110.82808 z m 0,0 C 68.032376,238.58927 16.603609,189.49874 17.002303,127.13143 17.386028,67.118595 67.2554,16.591711 128.96312,17.002487 c 59.97142,0.398535 110.56878,50.180037 110.03266,111.166763 0.49666,60.43313 -50.34835,111.25518 -111.81114,110.82808 z"
         fill="#49a32b"
         id="path35" />
      <path
         d="m 169.32732,127.95616 c -0.2846,5.29021 -4.90621,9.68306 -9.46111,8.91643 -0.0218,0 -0.0449,0 -0.0681,0 -5.04511,0.007 -9.13975,-4.0783 -9.14519,-9.12341 0.17157,-5.05872 4.36697,-9.04578 9.42706,-8.96 5.04511,0.0245 9.51966,4.288 9.24732,9.16698 z m -81.126129,51.264 c 1.902298,0.0558 3.805958,0.015 5.99966,0.015 v 13.78587 c -13.634723,2.30536 -24.866043,-1.56596 -27.622128,-13.0914 -0.943659,-4.23762 -1.523744,-8.54877 -1.73617,-12.88579 -0.292766,-4.59166 0.213787,-9.23506 -0.13617,-13.81855 C 63.736851,140.61318 62.102809,136.30748 50,135.71105 v -15.69634 c 0.867404,-0.20289 1.747064,-0.35268 2.63217,-0.45208 6.635575,-0.32681 9.432511,-2.36119 10.916766,-8.89736 0.675404,-3.67251 1.075745,-7.38996 1.194213,-11.122386 0.525617,-7.217021 0.339064,-14.551149 1.541447,-21.651064 1.737532,-10.267234 8.111659,-15.255149 18.64034,-15.813447 2.995745,-0.160681 6.001021,-0.02451 9.395745,-0.02451 v 14.090893 c -1.397107,0.09941 -2.677107,0.302298 -3.948936,0.264171 -8.580085,-0.262809 -9.024,2.659404 -9.650383,9.762042 -0.390809,4.454128 0.148425,8.984511 -0.155234,13.453617 -0.317277,4.447324 -0.912341,8.871494 -1.781107,13.245274 -1.237787,6.33873 -5.134978,11.05294 -10.535489,15.05362 10.483745,6.82213 11.676596,17.42298 12.357447,28.18723 0.366298,5.78451 0.198808,11.60988 0.785702,17.36579 0.457532,4.46775 2.195064,5.60749 6.80851,5.74366 z m 8.836086,-60.43098 c 0.05447,0 0.107574,0 0.162042,0 5.012421,0.0831 9.010381,4.21311 8.927321,9.22689 0,0.16477 -0.005,0.32818 -0.015,0.49158 -0.28187,4.8994 -4.48136,8.64136 -9.380766,8.35949 -0.197447,0.004 -0.393532,0 -0.590979,-0.01 -4.989277,-0.24783 -8.833362,-4.49362 -8.585532,-9.4829 0.24783,-4.98927 4.493617,-8.83336 9.482894,-8.58553 z m 31.236083,0 c 5.48221,-0.0422 9.12341,3.51047 9.152,8.93004 0.03,5.56528 -3.42196,9.12613 -8.86876,9.14928 -5.53941,0.0245 -9.18605,-3.47915 -9.216,-8.86604 -0.0163,-0.27506 -0.0204,-0.55013 -0.0123,-0.82519 0.15387,-4.78639 4.15864,-8.54196 8.94502,-8.38809 z m 65.39983,-6.8657 c 1.45838,5.44681 4.29753,7.36136 10.03166,7.62281 0.93958,0.0436 1.87506,0.20289 3.16323,0.34587 v 15.69226 c -0.69719,0.22876 -1.41208,0.40034 -2.13787,0.512 -7.68408,0.47795 -11.18638,3.63029 -11.96255,11.3348 -0.49566,4.91847 -0.45481,9.89141 -0.79523,14.82758 -0.14298,5.41957 -0.63592,10.82417 -1.47609,16.17974 -1.96085,9.70349 -8.01906,14.54434 -18.02894,15.13532 -3.22178,0.19064 -6.46672,0.03 -9.94042,0.03 v -14.02553 c 1.86962,-0.11575 3.52,-0.27507 5.17447,-0.31456 5.98059,-0.14297 8.09532,-2.07114 8.38808,-8.01089 0.32409,-6.52528 0.4657,-13.05872 0.75711,-19.58536 0.42349,-9.43387 3.00664,-17.86145 11.79506,-23.74536 -5.02876,-3.58536 -9.06621,-7.92783 -10.112,-13.78315 -1.26502,-7.09719 -1.67353,-14.35098 -2.35438,-21.547575 -0.33634,-3.597617 -0.32,-7.226554 -0.67132,-10.821447 -0.37855,-3.880851 -3.04477,-5.22349 -6.57702,-5.310638 -2.02349,-0.04902 -4.05515,-0.0095 -6.64238,-0.0095 v -13.696 c 16.50927,-2.741107 27.91353,2.752 28.97293,18.547744 0.44392,6.632851 0.37855,13.297022 0.80341,19.929876 0.18655,3.60851 0.72578,7.18978 1.61225,10.69208 z"
         fill="#ffffff"
         id="path37" />
    </g>
    <g
       id="g220"
       transform="matrix(3.5136791,0,0,3.5136791,618.10249,108.91117)">
      <path
         fill="#4caf50"
         d="M 44,24 C 44,35.045 35.045,44 24,44 12.955,44 4,35.045 4,24 4,12.955 12.955,4 24,4 35.045,4 44,12.955 44,24 Z"
         id="path205" />
      <path
         fill="#ffffff"
         d="m 21,14 h 6 v 20 h -6 z"
         id="path207" />
      <path
         fill="#ffffff"
         d="m 14,21 h 20 v 6 H 14 Z"
         id="path209" />
    </g>
    <g
       id="g142"
       transform="matrix(1.3831967,0,0,1.3831967,51.725337,127.18309)">
      <path
         class="st0"
         d="M 88.5,5.7 C 87.2,8.9 85.4,12 83.3,14.8 64.7,-4.5 34,-5 14.8,13.6 -4.4,32.2 -5,62.9 13.6,82.1 c 0.6,0.7 1.3,1.3 2,1.9 l 1.8,1.6 c 20.4,17.2 51,14.6 68.2,-5.8 C 92.2,72 96.2,62.2 96.9,52 98.3,39.9 94.6,24.3 88.5,5.7 Z M 22.6,84.5 c -1.4,1.8 -4,2 -5.8,0.6 -1.8,-1.4 -2,-4 -0.6,-5.8 1.4,-1.8 4,-2 5.8,-0.6 1.7,1.4 2,4 0.6,5.8 z M 88.2,70 C 76.3,85.9 50.7,80.5 34.4,81.3 c 0,0 -2.9,0.2 -5.8,0.6 0,0 1.1,-0.5 2.5,-1 11.5,-4 16.9,-4.8 23.9,-8.4 13.1,-6.7 26.2,-21.4 28.8,-36.6 -5,14.6 -20.2,27.2 -34,32.3 -9.5,3.5 -26.6,6.9 -26.6,6.9 L 22.5,74.7 C 10.9,69 10.5,43.8 31.7,35.7 41,32.1 49.8,34.1 59.9,31.7 70.6,29.2 83,21.2 88,10.7 93.6,27.6 100.4,53.8 88.2,70 Z"
         id="path100" />
      <path
         class="st0"
         d="m 124.4,67.6 c -1.3,-0.8 -2.1,-2.2 -2,-3.7 0,-2.4 1.9,-4.4 4.3,-4.4 0,0 0,0 0.1,0 0.8,0 1.6,0.2 2.3,0.6 4,2.8 8.7,4.3 13.5,4.5 4.6,0 7.3,-2 7.3,-5.1 v -0.2 c 0,-3.7 -5,-4.9 -10.5,-6.6 -6.9,-2 -14.7,-4.8 -14.7,-13.8 v -0.2 c 0,-8.9 7.4,-14.3 16.7,-14.3 5.2,0.1 10.2,1.4 14.8,3.8 1.6,0.8 2.6,2.3 2.6,4.1 0,2.4 -2,4.4 -4.4,4.4 h -0.1 c -0.7,0 -1.4,-0.2 -2.1,-0.5 -3.4,-1.9 -7.1,-3 -11,-3.2 -4.2,0 -6.6,2 -6.6,4.6 v 0.2 c 0,3.5 5.1,4.9 10.6,6.7 6.9,2.1 14.6,5.3 14.6,13.7 v 0.2 c 0,9.9 -7.7,14.8 -17.4,14.8 -6.4,-0.1 -12.7,-2 -18,-5.6 z"
         id="path102" />
      <path
         class="st0"
         d="m 163.8,29.9 c -0.1,-2.9 2.3,-5.3 5.2,-5.4 h 0.1 c 3,0 5.4,2.4 5.4,5.4 v 0 3.2 c 3.5,-4.9 8.4,-8.8 16,-8.8 11,0 21.8,8.7 21.8,24.4 v 0.2 c 0,15.6 -10.7,24.4 -21.8,24.4 -7.8,0 -12.7,-3.9 -16,-8.3 v 16.6 c 0,3 -2.4,5.4 -5.4,5.4 v 0 c -2.9,0 -5.3,-2.4 -5.3,-5.3 v -0.1 z m 37.7,19 v -0.2 c 0,-9.1 -6.1,-15 -13.4,-15 -7.3,0 -13.7,6.1 -13.7,15 v 0.2 c 0,9 6.4,15 13.7,15 7.3,0 13.4,-5.7 13.4,-15 z"
         id="path104" />
      <path
         class="st0"
         d="m 216.5,29.9 c -0.1,-2.9 2.3,-5.3 5.2,-5.4 h 0.1 c 3,0 5.4,2.4 5.4,5.4 v 0 2.6 c 0.5,-4 7.1,-8 11.8,-8 2.7,-0.2 5.1,1.8 5.3,4.5 0,0.3 0,0.5 0,0.8 0,2.6 -1.8,4.8 -4.3,5.2 -7.7,1.3 -12.9,8 -12.9,17.3 v 15.5 c 0,3 -2.4,5.3 -5.4,5.3 -2.9,0 -5.3,-2.3 -5.3,-5.2 0,0 0,0 0,-0.1 z"
         id="path106" />
      <path
         class="st0"
         d="m 248.6,30 c -0.1,-2.9 2.3,-5.3 5.2,-5.4 h 0.1 c 3,0 5.4,2.4 5.4,5.4 v 0 37.9 c 0,3 -2.4,5.3 -5.4,5.3 -3,0 -5.3,-2.4 -5.3,-5.3 z"
         id="path108" />
      <path
         class="st0"
         d="m 264.8,30 c -0.1,-2.9 2.3,-5.3 5.2,-5.4 h 0.1 c 3,0 5.4,2.4 5.4,5.4 v 0 2.2 c 3.2,-5 8.8,-7.9 14.7,-7.7 10.6,0 16.7,7.1 16.7,18 v 25.3 c 0.1,2.9 -2.2,5.2 -5.1,5.3 -0.1,0 -0.1,0 -0.2,0 -2.9,0.1 -5.3,-2.3 -5.4,-5.2 v -0.1 -22 c 0,-7.3 -3.6,-11.5 -10.1,-11.5 -6.2,0 -10.6,4.4 -10.6,11.7 v 21.9 c 0,3 -2.4,5.4 -5.4,5.4 -3,0 -5.4,-2.4 -5.4,-5.4 z"
         id="path110" />
      <path
         class="st0"
         d="m 354.3,24.4 c -3,0 -5.4,2.4 -5.4,5.4 v 0 3.2 c -3.5,-4.9 -8.4,-8.8 -16,-8.8 -11,0 -21.8,8.7 -21.8,24.4 v 0.2 c 0,15.6 10.7,24.4 21.8,24.4 7.8,0 12.7,-3.9 16,-8.2 -0.5,8.5 -5.7,12.9 -14.8,12.9 -5,0 -10,-1.2 -14.4,-3.7 -0.6,-0.3 -1.2,-0.4 -1.9,-0.4 -2.5,0 -4.5,1.9 -4.6,4.4 0,1.9 1.2,3.7 3,4.3 5.7,2.8 11.9,4.2 18.2,4.2 8.5,0 15.1,-2 19.3,-6.3 3.9,-3.9 6,-9.8 6,-17.7 V 29.9 c 0.1,-3 -2.3,-5.4 -5.3,-5.5 0,0 -0.1,0 -0.1,0 z M 335.4,63.9 C 328,63.9 322,58.1 322,48.8 v -0.2 c 0,-9.1 6.1,-15 13.4,-15 7.3,0 13.7,6.1 13.7,15 v 0.2 c 0.1,9 -6.3,15.1 -13.7,15.1 z"
         id="path112" />
      <path
         class="st0"
         d="m 259.4,11.6 c 0,3 -2.4,5.4 -5.4,5.4 -3,0 -5.4,-2.4 -5.4,-5.4 0,-3 2.4,-5.4 5.4,-5.4 v 0 c 2.9,-0.1 5.3,2.3 5.4,5.2 0,0.1 0,0.1 0,0.2 z"
         id="path114" />
      <path
         class="st0"
         d="m 372,35.7 c -3,0 -5.5,-2.5 -5.5,-5.5 0,-3 2.5,-5.5 5.5,-5.5 3,0 5.5,2.5 5.5,5.5 0,3 -2.5,5.5 -5.5,5.5 z m 0,-10.2 c -2.6,0 -4.7,2.1 -4.7,4.7 0,2.6 2.1,4.7 4.7,4.7 2.6,0 4.7,-2.1 4.7,-4.7 0,-2.6 -2,-4.7 -4.6,-4.7 z m 1.5,7.8 -1.6,-2.5 h -1.1 v 2.5 h -0.9 V 27 h 2.6 c 1.1,-0.1 2,0.8 2.1,1.9 v 0 c 0,0.9 -0.7,1.7 -1.6,1.9 l 1.7,2.5 z m -1.1,-5.5 h -1.6 V 30 h 1.7 c 0.6,0 1.1,-0.5 1.1,-1.1 0,-0.6 -0.5,-1.1 -1.2,-1.1 z"
         id="path116" />
      <path
         class="st0"
         d="M 85.6,79.8 C 92.2,72 96.2,62.2 96.9,52"
         id="path118" />
      <path
         class="st1"
         d="M 88.2,70 C 76.3,85.9 50.7,80.5 34.4,81.3 c 0,0 -2.9,0.2 -5.8,0.6 0,0 1.1,-0.5 2.5,-1 11.5,-4 16.9,-4.8 23.9,-8.4 13.1,-6.7 26.2,-21.4 28.8,-36.6 -5,14.6 -20.2,27.2 -34,32.3 -9.5,3.5 -26.6,6.9 -26.6,6.9 L 22.5,74.7 C 10.9,69 10.5,43.8 31.7,35.7 41,32.1 49.8,34.1 59.9,31.7 70.6,29.2 83,21.2 88,10.7 93.6,27.6 100.4,53.8 88.2,70 Z"
         id="path120" />
      <path
         class="st1"
         d="m 22.6,84.5 c -1.4,1.8 -4,2 -5.8,0.6 -1.8,-1.4 -2,-4 -0.6,-5.8 1.4,-1.8 4,-2 5.8,-0.6 1.7,1.4 2,4 0.6,5.8 z"
         id="path122" />
    </g>
  </g>
  <style
     type="text/css"
     id="style98">
	.st0{fill:#6DB33F;}
	.st1{fill:#FFFFFF;}
</style>
</svg>
