<?xml version="1.0" encoding="UTF-8" standalone="no"?>
<!-- Created with Inkscape (http://www.inkscape.org/) -->

<svg
   width="1128"
   height="376"
   viewBox="0 0 1128 376"
   version="1.1"
   id="svg5"
   inkscape:version="1.1.1 (3bf5ae0d25, 2021-09-20)"
   sodipodi:docname="spring_vscode.svg"
   xmlns:inkscape="http://www.inkscape.org/namespaces/inkscape"
   xmlns:sodipodi="http://sodipodi.sourceforge.net/DTD/sodipodi-0.dtd"
   xmlns="http://www.w3.org/2000/svg"
   xmlns:svg="http://www.w3.org/2000/svg">
  <sodipodi:namedview
     id="namedview7"
     pagecolor="#ffffff"
     bordercolor="#666666"
     borderopacity="1.0"
     inkscape:pageshadow="2"
     inkscape:pageopacity="0.0"
     inkscape:pagecheckerboard="0"
     inkscape:document-units="px"
     showgrid="false"
     inkscape:zoom="1.1861702"
     inkscape:cx="564.42153"
     inkscape:cy="257.13005"
     inkscape:window-width="2560"
     inkscape:window-height="1355"
     inkscape:window-x="0"
     inkscape:window-y="0"
     inkscape:window-maximized="1"
     inkscape:current-layer="layer1" />
  <defs
     id="defs2" />
  <g
     inkscape:label="Layer 1"
     inkscape:groupmode="layer"
     id="layer1">
    <g
       id="g220"
       transform="matrix(3.5136791,0,0,3.5136791,634.52353,109.86014)">
      <path
         fill="#4caf50"
         d="M 44,24 C 44,35.045 35.045,44 24,44 12.955,44 4,35.045 4,24 4,12.955 12.955,4 24,4 35.045,4 44,12.955 44,24 Z"
         id="path205" />
      <path
         fill="#ffffff"
         d="m 21,14 h 6 v 20 h -6 z"
         id="path207" />
      <path
         fill="#ffffff"
         d="m 14,21 h 20 v 6 H 14 Z"
         id="path209" />
    </g>
    <g
       id="g452"
       transform="matrix(0.20727122,0,0,0.20727122,841.84688,89.735444)">
      <path
         d="m 12.1,353.9 c 0,0 -24,-17.3 4.8,-40.4 l 67.1,-60 c 0,0 19.2,-20.2 39.5,-2.6 l 619.2,468.8 v 224.8 c 0,0 -0.3,35.3 -45.6,31.4 z"
         fill="#2489ca"
         id="path434" />
      <path
         d="M 171.7,498.8 12.1,643.9 c 0,0 -16.4,12.2 0,34 l 74.1,67.4 c 0,0 17.6,18.9 43.6,-2.6 L 299,614.4 Z"
         fill="#1070b3"
         id="path436" />
      <path
         d="M 451.9,500 744.6,276.5 742.7,52.9 c 0,0 -12.5,-48.8 -54.2,-23.4 L 299,384 Z"
         fill="#0877b9"
         id="path438" />
      <path
         d="m 697.1,976.2 c 17,17.4 37.6,11.7 37.6,11.7 L 962.8,875.5 c 29.2,-19.9 25.1,-44.6 25.1,-44.6 V 159.7 C 987.9,130.2 957.7,120 957.7,120 L 760,24.7 c -43.2,-26.7 -71.5,4.8 -71.5,4.8 0,0 36.4,-26.2 54.2,23.4 v 887.5 c 0,6.1 -1.3,12.1 -3.9,17.5 -5.2,10.5 -16.5,20.3 -43.6,16.2 z"
         fill="#3c99d4"
         id="path440" />
    </g>
    <g
       id="g143"
       transform="matrix(1.4251561,0,0,1.4251561,62.383303,124.0867)">
      <path
         class="st0"
         d="M 88.5,5.7 C 87.2,8.9 85.4,12 83.3,14.8 64.7,-4.5 34,-5 14.8,13.6 -4.4,32.2 -5,62.9 13.6,82.1 c 0.6,0.7 1.3,1.3 2,1.9 l 1.8,1.6 c 20.4,17.2 51,14.6 68.2,-5.8 C 92.2,72 96.2,62.2 96.9,52 98.3,39.9 94.6,24.3 88.5,5.7 Z M 22.6,84.5 c -1.4,1.8 -4,2 -5.8,0.6 -1.8,-1.4 -2,-4 -0.6,-5.8 1.4,-1.8 4,-2 5.8,-0.6 1.7,1.4 2,4 0.6,5.8 z M 88.2,70 C 76.3,85.9 50.7,80.5 34.4,81.3 c 0,0 -2.9,0.2 -5.8,0.6 0,0 1.1,-0.5 2.5,-1 11.5,-4 16.9,-4.8 23.9,-8.4 13.1,-6.7 26.2,-21.4 28.8,-36.6 -5,14.6 -20.2,27.2 -34,32.3 -9.5,3.5 -26.6,6.9 -26.6,6.9 L 22.5,74.7 C 10.9,69 10.5,43.8 31.7,35.7 41,32.1 49.8,34.1 59.9,31.7 70.6,29.2 83,21.2 88,10.7 93.6,27.6 100.4,53.8 88.2,70 Z"
         id="path101" />
      <path
         class="st0"
         d="m 124.4,67.6 c -1.3,-0.8 -2.1,-2.2 -2,-3.7 0,-2.4 1.9,-4.4 4.3,-4.4 0,0 0,0 0.1,0 0.8,0 1.6,0.2 2.3,0.6 4,2.8 8.7,4.3 13.5,4.5 4.6,0 7.3,-2 7.3,-5.1 v -0.2 c 0,-3.7 -5,-4.9 -10.5,-6.6 -6.9,-2 -14.7,-4.8 -14.7,-13.8 v -0.2 c 0,-8.9 7.4,-14.3 16.7,-14.3 5.2,0.1 10.2,1.4 14.8,3.8 1.6,0.8 2.6,2.3 2.6,4.1 0,2.4 -2,4.4 -4.4,4.4 h -0.1 c -0.7,0 -1.4,-0.2 -2.1,-0.5 -3.4,-1.9 -7.1,-3 -11,-3.2 -4.2,0 -6.6,2 -6.6,4.6 v 0.2 c 0,3.5 5.1,4.9 10.6,6.7 6.9,2.1 14.6,5.3 14.6,13.7 v 0.2 c 0,9.9 -7.7,14.8 -17.4,14.8 -6.4,-0.1 -12.7,-2 -18,-5.6 z"
         id="path103" />
      <path
         class="st0"
         d="m 163.8,29.9 c -0.1,-2.9 2.3,-5.3 5.2,-5.4 h 0.1 c 3,0 5.4,2.4 5.4,5.4 v 0 3.2 c 3.5,-4.9 8.4,-8.8 16,-8.8 11,0 21.8,8.7 21.8,24.4 v 0.2 c 0,15.6 -10.7,24.4 -21.8,24.4 -7.8,0 -12.7,-3.9 -16,-8.3 v 16.6 c 0,3 -2.4,5.4 -5.4,5.4 v 0 c -2.9,0 -5.3,-2.4 -5.3,-5.3 v -0.1 z m 37.7,19 v -0.2 c 0,-9.1 -6.1,-15 -13.4,-15 -7.3,0 -13.7,6.1 -13.7,15 v 0.2 c 0,9 6.4,15 13.7,15 7.3,0 13.4,-5.7 13.4,-15 z"
         id="path105" />
      <path
         class="st0"
         d="m 216.5,29.9 c -0.1,-2.9 2.3,-5.3 5.2,-5.4 h 0.1 c 3,0 5.4,2.4 5.4,5.4 v 0 2.6 c 0.5,-4 7.1,-8 11.8,-8 2.7,-0.2 5.1,1.8 5.3,4.5 0,0.3 0,0.5 0,0.8 0,2.6 -1.8,4.8 -4.3,5.2 -7.7,1.3 -12.9,8 -12.9,17.3 v 15.5 c 0,3 -2.4,5.3 -5.4,5.3 -2.9,0 -5.3,-2.3 -5.3,-5.2 0,0 0,0 0,-0.1 z"
         id="path107" />
      <path
         class="st0"
         d="m 248.6,30 c -0.1,-2.9 2.3,-5.3 5.2,-5.4 h 0.1 c 3,0 5.4,2.4 5.4,5.4 v 0 37.9 c 0,3 -2.4,5.3 -5.4,5.3 -3,0 -5.3,-2.4 -5.3,-5.3 z"
         id="path109" />
      <path
         class="st0"
         d="m 264.8,30 c -0.1,-2.9 2.3,-5.3 5.2,-5.4 h 0.1 c 3,0 5.4,2.4 5.4,5.4 v 0 2.2 c 3.2,-5 8.8,-7.9 14.7,-7.7 10.6,0 16.7,7.1 16.7,18 v 25.3 c 0.1,2.9 -2.2,5.2 -5.1,5.3 -0.1,0 -0.1,0 -0.2,0 -2.9,0.1 -5.3,-2.3 -5.4,-5.2 v -0.1 -22 c 0,-7.3 -3.6,-11.5 -10.1,-11.5 -6.2,0 -10.6,4.4 -10.6,11.7 v 21.9 c 0,3 -2.4,5.4 -5.4,5.4 -3,0 -5.4,-2.4 -5.4,-5.4 z"
         id="path111" />
      <path
         class="st0"
         d="m 354.3,24.4 c -3,0 -5.4,2.4 -5.4,5.4 v 0 3.2 c -3.5,-4.9 -8.4,-8.8 -16,-8.8 -11,0 -21.8,8.7 -21.8,24.4 v 0.2 c 0,15.6 10.7,24.4 21.8,24.4 7.8,0 12.7,-3.9 16,-8.2 -0.5,8.5 -5.7,12.9 -14.8,12.9 -5,0 -10,-1.2 -14.4,-3.7 -0.6,-0.3 -1.2,-0.4 -1.9,-0.4 -2.5,0 -4.5,1.9 -4.6,4.4 0,1.9 1.2,3.7 3,4.3 5.7,2.8 11.9,4.2 18.2,4.2 8.5,0 15.1,-2 19.3,-6.3 3.9,-3.9 6,-9.8 6,-17.7 V 29.9 c 0.1,-3 -2.3,-5.4 -5.3,-5.5 0,0 -0.1,0 -0.1,0 z M 335.4,63.9 C 328,63.9 322,58.1 322,48.8 v -0.2 c 0,-9.1 6.1,-15 13.4,-15 7.3,0 13.7,6.1 13.7,15 v 0.2 c 0.1,9 -6.3,15.1 -13.7,15.1 z"
         id="path113" />
      <path
         class="st0"
         d="m 259.4,11.6 c 0,3 -2.4,5.4 -5.4,5.4 -3,0 -5.4,-2.4 -5.4,-5.4 0,-3 2.4,-5.4 5.4,-5.4 v 0 c 2.9,-0.1 5.3,2.3 5.4,5.2 0,0.1 0,0.1 0,0.2 z"
         id="path115" />
      <path
         class="st0"
         d="m 372,35.7 c -3,0 -5.5,-2.5 -5.5,-5.5 0,-3 2.5,-5.5 5.5,-5.5 3,0 5.5,2.5 5.5,5.5 0,3 -2.5,5.5 -5.5,5.5 z m 0,-10.2 c -2.6,0 -4.7,2.1 -4.7,4.7 0,2.6 2.1,4.7 4.7,4.7 2.6,0 4.7,-2.1 4.7,-4.7 0,-2.6 -2,-4.7 -4.6,-4.7 z m 1.5,7.8 -1.6,-2.5 h -1.1 v 2.5 h -0.9 V 27 h 2.6 c 1.1,-0.1 2,0.8 2.1,1.9 v 0 c 0,0.9 -0.7,1.7 -1.6,1.9 l 1.7,2.5 z m -1.1,-5.5 h -1.6 V 30 h 1.7 c 0.6,0 1.1,-0.5 1.1,-1.1 0,-0.6 -0.5,-1.1 -1.2,-1.1 z"
         id="path117" />
      <path
         class="st0"
         d="M 85.6,79.8 C 92.2,72 96.2,62.2 96.9,52"
         id="path119" />
      <path
         class="st1"
         d="M 88.2,70 C 76.3,85.9 50.7,80.5 34.4,81.3 c 0,0 -2.9,0.2 -5.8,0.6 0,0 1.1,-0.5 2.5,-1 11.5,-4 16.9,-4.8 23.9,-8.4 13.1,-6.7 26.2,-21.4 28.8,-36.6 -5,14.6 -20.2,27.2 -34,32.3 -9.5,3.5 -26.6,6.9 -26.6,6.9 L 22.5,74.7 C 10.9,69 10.5,43.8 31.7,35.7 41,32.1 49.8,34.1 59.9,31.7 70.6,29.2 83,21.2 88,10.7 93.6,27.6 100.4,53.8 88.2,70 Z"
         id="path121" />
      <path
         class="st1"
         d="m 22.6,84.5 c -1.4,1.8 -4,2 -5.8,0.6 -1.8,-1.4 -2,-4 -0.6,-5.8 1.4,-1.8 4,-2 5.8,-0.6 1.7,1.4 2,4 0.6,5.8 z"
         id="path123" />
    </g>
  </g>
  <style
     type="text/css"
     id="style99">
	.st0{fill:#6DB33F;}
	.st1{fill:#FFFFFF;}
</style>
</svg>
