<?xml version="1.0" encoding="UTF-8" standalone="no"?>
<!-- Created with Inkscape (http://www.inkscape.org/) -->

<svg
   width="1128"
   height="376"
   viewBox="0 0 1128 376"
   version="1.1"
   id="svg5"
   inkscape:version="1.1.1 (3bf5ae0d25, 2021-09-20)"
   sodipodi:docname="spring_swagger.svg"
   xmlns:inkscape="http://www.inkscape.org/namespaces/inkscape"
   xmlns:sodipodi="http://sodipodi.sourceforge.net/DTD/sodipodi-0.dtd"
   xmlns="http://www.w3.org/2000/svg"
   xmlns:svg="http://www.w3.org/2000/svg">
  <sodipodi:namedview
     id="namedview7"
     pagecolor="#ffffff"
     bordercolor="#666666"
     borderopacity="1.0"
     inkscape:pageshadow="2"
     inkscape:pageopacity="0.0"
     inkscape:pagecheckerboard="0"
     inkscape:document-units="px"
     showgrid="false"
     inkscape:zoom="1.1861702"
     inkscape:cx="564.42152"
     inkscape:cy="188"
     inkscape:window-width="2560"
     inkscape:window-height="1355"
     inkscape:window-x="0"
     inkscape:window-y="0"
     inkscape:window-maximized="1"
     inkscape:current-layer="layer1" />
  <defs
     id="defs2" />
  <g
     inkscape:label="Layer 1"
     inkscape:groupmode="layer"
     id="layer1">
    <g
       id="g15"
       style="fill:#6db33f"
       transform="translate(162.16595,57.103091)">
      <path
         d="M 244.89637,54.566879 74.628483,1.6100827 C 66.396638,-0.94984007 57.549199,3.6382532 54.969276,11.806285 L 1.5987549,180.75427 c -2.57992221,8.16902 2.0440155,16.94689 10.2758601,19.50681 L 182.1435,253.21787 c 8.23185,2.55993 17.07829,-2.02817 19.65821,-10.1962 L 255.17223,74.0727 c 2.58092,-8.168032 -2.04401,-16.945898 -10.27586,-19.505821 z M 81.598257,180.53584 c 0,7.21819 -5.951751,13.1238 -13.226335,13.1238 h -0.04881 c -7.273588,0 -13.225339,-5.90561 -13.225339,-13.1238 v -67.2469 c 0,-7.21819 5.951751,-13.12282 13.225339,-13.12282 h 0.04881 c 7.274584,0 13.226335,5.90463 13.226335,13.12282 z M 68.348016,87.244936 c -7.348296,0 -13.305028,-5.910555 -13.305028,-13.200899 0,-7.291332 5.956732,-13.201888 13.305028,-13.201888 7.347299,0 13.304031,5.910556 13.304031,13.201888 0,7.290344 -5.956732,13.200899 -13.304031,13.200899 z M 152.61086,193.61615 c -33.11663,0 -59.916946,-27.19547 -59.916946,-60.05539 0,-32.86091 26.847126,-59.498932 59.964766,-59.498932 17.05537,0 32.44825,7.064991 43.3666,18.407722 l 6.40498,-11.24488 c 6.56834,17.583407 10.84563,38.12407 10.84563,52.22045 0,32.85992 -27.54739,60.17103 -60.66503,60.17103 z"
         id="path9" />
      <path
         d="m 129.95536,174.31888 c 6.43586,-2.00247 13.29706,-4.1107 19.03564,-5.9491 22.66049,-7.26069 42.14039,-25.53993 47.29028,-48.50016 -4.09899,10.80109 -20.83462,31.9002 -47.04424,40.30643 -8.40915,2.64591 -17.13208,4.32123 -25.74543,6.29504 -1.10668,0.25401 -2.62375,-0.0287 -3.59595,-0.62862 -5.52044,-3.40598 -8.49482,-9.49939 -8.96399,-15.64716 -1.26506,-16.54164 10.05772,-30.04103 26.88897,-33.53597 7.06839,-1.46875 14.34596,-1.08624 21.56675,-1.85323 19.07051,-1.9916 36.99649,-15.540409 42.41133,-26.866338 0,0 0.97221,2.207069 1.18139,2.857427 4.09301,12.722521 7.35626,25.614051 7.67402,39.060071 0.17133,7.26267 -0.63053,14.41168 -3.21842,21.27306 -5.20268,13.79096 -15.82419,20.7838 -30.01377,22.42947 -8.29559,0.9617 -16.73861,0.75018 -25.11788,0.9103 -6.80043,0.12948 -14.67069,-0.15122 -22.3487,-0.15122"
         id="path11" />
      <path
         d="m 121.5223,175.01273 c 0,2.80405 -2.29005,5.07635 -5.11601,5.07635 -2.82596,0 -5.11602,-2.2723 -5.11602,-5.07635 0,-2.80406 2.29006,-5.07636 5.11602,-5.07636 2.82596,0 5.11601,2.2723 5.11601,5.07636"
         id="path13" />
    </g>
    <g
       id="g39"
       transform="translate(708.6998,67.6141)">
      <path
         d="M 127.05966,255.99692 C 58.850654,255.52647 -0.45707362,198.91844 0.00265506,126.9983 0.4446494,57.795863 57.95166,-0.46896758 129.11002,0.00284555 198.26713,0.46238608 256.61311,57.866771 255.99514,128.1942 c 0.57295,69.68925 -58.06087,128.29499 -128.93548,127.80272 z m 0,0 C 58.850654,255.52647 -0.45707362,198.91844 0.00265506,126.9983 0.4446494,57.795863 57.95166,-0.46896758 129.11002,0.00284555 198.26713,0.46238608 256.61311,57.866771 255.99514,128.1942 c 0.57295,69.68925 -58.06087,128.29499 -128.93548,127.80272 z"
         fill="#ffffff"
         id="path33" />
      <path
         d="M 127.18464,238.99733 C 68.032376,238.58927 16.603609,189.49874 17.002303,127.13143 17.386028,67.118595 67.2554,16.591711 128.96312,17.002487 c 59.97142,0.398535 110.56878,50.180037 110.03266,111.166763 0.49666,60.43313 -50.34835,111.25518 -111.81114,110.82808 z m 0,0 C 68.032376,238.58927 16.603609,189.49874 17.002303,127.13143 17.386028,67.118595 67.2554,16.591711 128.96312,17.002487 c 59.97142,0.398535 110.56878,50.180037 110.03266,111.166763 0.49666,60.43313 -50.34835,111.25518 -111.81114,110.82808 z"
         fill="#49a32b"
         id="path35" />
      <path
         d="m 169.32732,127.95616 c -0.2846,5.29021 -4.90621,9.68306 -9.46111,8.91643 -0.0218,0 -0.0449,0 -0.0681,0 -5.04511,0.007 -9.13975,-4.0783 -9.14519,-9.12341 0.17157,-5.05872 4.36697,-9.04578 9.42706,-8.96 5.04511,0.0245 9.51966,4.288 9.24732,9.16698 z m -81.126129,51.264 c 1.902298,0.0558 3.805958,0.015 5.99966,0.015 v 13.78587 c -13.634723,2.30536 -24.866043,-1.56596 -27.622128,-13.0914 -0.943659,-4.23762 -1.523744,-8.54877 -1.73617,-12.88579 -0.292766,-4.59166 0.213787,-9.23506 -0.13617,-13.81855 C 63.736851,140.61318 62.102809,136.30748 50,135.71105 v -15.69634 c 0.867404,-0.20289 1.747064,-0.35268 2.63217,-0.45208 6.635575,-0.32681 9.432511,-2.36119 10.916766,-8.89736 0.675404,-3.67251 1.075745,-7.38996 1.194213,-11.122386 0.525617,-7.217021 0.339064,-14.551149 1.541447,-21.651064 1.737532,-10.267234 8.111659,-15.255149 18.64034,-15.813447 2.995745,-0.160681 6.001021,-0.02451 9.395745,-0.02451 v 14.090893 c -1.397107,0.09941 -2.677107,0.302298 -3.948936,0.264171 -8.580085,-0.262809 -9.024,2.659404 -9.650383,9.762042 -0.390809,4.454128 0.148425,8.984511 -0.155234,13.453617 -0.317277,4.447324 -0.912341,8.871494 -1.781107,13.245274 -1.237787,6.33873 -5.134978,11.05294 -10.535489,15.05362 10.483745,6.82213 11.676596,17.42298 12.357447,28.18723 0.366298,5.78451 0.198808,11.60988 0.785702,17.36579 0.457532,4.46775 2.195064,5.60749 6.80851,5.74366 z m 8.836086,-60.43098 c 0.05447,0 0.107574,0 0.162042,0 5.012421,0.0831 9.010381,4.21311 8.927321,9.22689 0,0.16477 -0.005,0.32818 -0.015,0.49158 -0.28187,4.8994 -4.48136,8.64136 -9.380766,8.35949 -0.197447,0.004 -0.393532,0 -0.590979,-0.01 -4.989277,-0.24783 -8.833362,-4.49362 -8.585532,-9.4829 0.24783,-4.98927 4.493617,-8.83336 9.482894,-8.58553 z m 31.236083,0 c 5.48221,-0.0422 9.12341,3.51047 9.152,8.93004 0.03,5.56528 -3.42196,9.12613 -8.86876,9.14928 -5.53941,0.0245 -9.18605,-3.47915 -9.216,-8.86604 -0.0163,-0.27506 -0.0204,-0.55013 -0.0123,-0.82519 0.15387,-4.78639 4.15864,-8.54196 8.94502,-8.38809 z m 65.39983,-6.8657 c 1.45838,5.44681 4.29753,7.36136 10.03166,7.62281 0.93958,0.0436 1.87506,0.20289 3.16323,0.34587 v 15.69226 c -0.69719,0.22876 -1.41208,0.40034 -2.13787,0.512 -7.68408,0.47795 -11.18638,3.63029 -11.96255,11.3348 -0.49566,4.91847 -0.45481,9.89141 -0.79523,14.82758 -0.14298,5.41957 -0.63592,10.82417 -1.47609,16.17974 -1.96085,9.70349 -8.01906,14.54434 -18.02894,15.13532 -3.22178,0.19064 -6.46672,0.03 -9.94042,0.03 v -14.02553 c 1.86962,-0.11575 3.52,-0.27507 5.17447,-0.31456 5.98059,-0.14297 8.09532,-2.07114 8.38808,-8.01089 0.32409,-6.52528 0.4657,-13.05872 0.75711,-19.58536 0.42349,-9.43387 3.00664,-17.86145 11.79506,-23.74536 -5.02876,-3.58536 -9.06621,-7.92783 -10.112,-13.78315 -1.26502,-7.09719 -1.67353,-14.35098 -2.35438,-21.547575 -0.33634,-3.597617 -0.32,-7.226554 -0.67132,-10.821447 -0.37855,-3.880851 -3.04477,-5.22349 -6.57702,-5.310638 -2.02349,-0.04902 -4.05515,-0.0095 -6.64238,-0.0095 v -13.696 c 16.50927,-2.741107 27.91353,2.752 28.97293,18.547744 0.44392,6.632851 0.37855,13.297022 0.80341,19.929876 0.18655,3.60851 0.72578,7.18978 1.61225,10.69208 z"
         fill="#ffffff"
         id="path37" />
    </g>
    <g
       id="g220"
       transform="matrix(3.5136791,0,0,3.5136791,479.09732,120.1238)">
      <path
         fill="#4caf50"
         d="M 44,24 C 44,35.045 35.045,44 24,44 12.955,44 4,35.045 4,24 4,12.955 12.955,4 24,4 35.045,4 44,12.955 44,24 Z"
         id="path205" />
      <path
         fill="#ffffff"
         d="m 21,14 h 6 v 20 h -6 z"
         id="path207" />
      <path
         fill="#ffffff"
         d="m 14,21 h 20 v 6 H 14 Z"
         id="path209" />
    </g>
  </g>
</svg>
