<?xml version="1.0" encoding="UTF-8" standalone="no"?>
<svg
   fill-rule="evenodd"
   stroke-width="27"
   aria-label="Logo"
   viewBox="0 0 1493 391"
   version="1.1"
   id="svg44"
   sodipodi:docname="ubuntu-qbittorrent.svg"
   xml:space="preserve"
   inkscape:version="1.2.2 (b0a8486541, 2022-12-01)"
   xmlns:inkscape="http://www.inkscape.org/namespaces/inkscape"
   xmlns:sodipodi="http://sodipodi.sourceforge.net/DTD/sodipodi-0.dtd"
   xmlns="http://www.w3.org/2000/svg"
   xmlns:svg="http://www.w3.org/2000/svg"><defs
     id="defs48"><linearGradient
       gradientUnits="userSpaceOnUse"
       gradientTransform="scale(1.0663,0.93783)"
       id="a"
       y2="1.019"
       x2="116.889"
       y1="219.859"
       x1="116.889"><stop
         offset="0%"
         stop-color="#78D431"
         id="stop118" /><stop
         offset="100%"
         stop-color="#9EEE69"
         id="stop120" /><stop
         offset="100%"
         stop-color="#9EEE69"
         id="stop122" /></linearGradient><linearGradient
       gradientUnits="userSpaceOnUse"
       gradientTransform="scale(1.06066,0.9428)"
       id="b"
       y2="99.632"
       x2="226.919"
       y1="282.247"
       x1="226.919"><stop
         offset="0%"
         stop-color="#E4E6E6"
         id="stop125" /><stop
         offset="100%"
         stop-color="#F5F5FF"
         id="stop127" /></linearGradient><linearGradient
       x1="348.2829"
       y1="0"
       x2="782.05951"
       y2="786.48322"
       id="a-3"
       gradientUnits="userSpaceOnUse"><stop
         stop-color="#72B4F5"
         offset="0%"
         id="stop120-6" /><stop
         stop-color="#356EBF"
         offset="100%"
         id="stop122-7" /></linearGradient><style
       id="style200">.cls-1{fill:#1d1d1b;}.cls-2{fill:#e9500e;}.cls-3{fill:#fff;}</style></defs><sodipodi:namedview
     id="namedview46"
     pagecolor="#ffffff"
     bordercolor="#000000"
     borderopacity="0.25"
     inkscape:showpageshadow="2"
     inkscape:pageopacity="0.0"
     inkscape:pagecheckerboard="0"
     inkscape:deskcolor="#d1d1d1"
     showgrid="false"
     inkscape:zoom="0.90890824"
     inkscape:cx="748.15033"
     inkscape:cy="92.968681"
     inkscape:window-width="2560"
     inkscape:window-height="1312"
     inkscape:window-x="0"
     inkscape:window-y="32"
     inkscape:window-maximized="1"
     inkscape:current-layer="svg44" /><g
     id="g247"
     transform="matrix(0.73115898,0,0,0.73115898,596.16454,55.825458)"><path
       class="cls-1"
       d="m 473.25634,449.42424 q -16.27587,0 -27.71484,-4.95312 a 47.72194,47.72194 0 0 1 -18.51563,-13.68067 54.867,54.867 0 0 1 -10.26074,-20.40332 95.14545,95.14545 0 0 1 -3.18457,-25.12011 V 282.42766 h 16.03906 V 383.145 a 75.39335,75.39335 0 0 0 3.18457,23.23242 44.82139,44.82139 0 0 0 8.84571,16.15722 34.4988,34.4988 0 0 0 13.67969,9.43555 53.93177,53.93177 0 0 0 35.85253,0 34.5365,34.5365 0 0 0 13.68067,-9.43555 44.82022,44.82022 0 0 0 8.84473,-16.15722 75.39335,75.39335 0 0 0 3.18457,-23.23242 V 282.42766 h 16.03906 V 385.267 a 95.18621,95.18621 0 0 1 -3.1836,25.12011 54.86666,54.86666 0 0 1 -10.26074,20.40332 47.758,47.758 0 0 1 -18.51562,13.68067 q -11.44336,4.95266 -27.71485,4.95314 z"
       transform="translate(-124.03135,-117.69304)"
       id="path204" /><path
       class="cls-1"
       d="m 585.55224,331.25334 q 4.00782,-3.063 12.85547,-6.48632 a 57.82051,57.82051 0 0 1 20.874,-3.4209 55.62889,55.62889 0 0 1 23.46973,4.71777 48.79834,48.79834 0 0 1 17.33594,13.209 58.33726,58.33726 0 0 1 10.73242,20.167 85.32351,85.32351 0 0 1 3.65625,25.59179 76.43564,76.43564 0 0 1 -4.36426,26.65332 57.36549,57.36549 0 0 1 -12.26465,20.04883 52.75477,52.75477 0 0 1 -18.87009,12.61917 65.52706,65.52706 0 0 1 -24.41211,4.36328 q -16.27589,0 -26.88965,-2.12207 a 137.63729,137.63729 0 0 1 -17.4541,-4.48242 V 265.68108 l 15.33105,-2.83057 z m 0,100.24512 a 67.60723,67.60723 0 0 0 10.4961,2.24024 126.0587,126.0587 0 0 0 18.28027,1.06152 q 19.81347,0 31.84277,-12.85449 12.0293,-12.854 12.0293,-36.91407 a 84.27316,84.27316 0 0 0 -2.12305,-19.22363 45.10124,45.10124 0 0 0 -6.83984,-15.80371 34.28239,34.28239 0 0 0 -12.38379,-10.73144 q -7.667,-4.00782 -18.98731,-4.00977 a 49.36958,49.36958 0 0 0 -10.37792,1.06152 60.36572,60.36572 0 0 0 -9.19922,2.71192 50.86656,50.86656 0 0 0 -7.42969,3.53808 52.485,52.485 0 0 0 -5.30762,3.53809 z"
       transform="translate(-124.03135,-117.69304)"
       id="path206" /><path
       class="cls-1"
       d="m 798.09423,441.64006 q -6.84375,1.89111 -18.39843,4.2461 a 144.432,144.432 0 0 1 -28.30371,2.35839 q -13.68311,0 -22.87989,-4.00976 a 37.13457,37.13457 0 0 1 -14.86035,-11.32129 45.84149,45.84149 0 0 1 -8.13672,-17.69043 98.5593,98.5593 0 0 1 -2.47656,-22.87988 v -68.40235 h 15.33105 v 63.44922 a 108.31376,108.31376 0 0 0 1.88672,21.93653 q 1.88526,8.96631 6.13282,14.50586 a 23.9344,23.9344 0 0 0 10.96777,8.01953 47.63567,47.63567 0 0 0 16.39355,2.47656 131.12918,131.12918 0 0 0 18.86914,-1.17969 q 8.01709,-1.17772 10.14258,-2.12207 V 323.94084 h 15.332 z"
       transform="translate(-124.03135,-117.69304)"
       id="path208" /><path
       class="cls-1"
       d="m 834.31982,328.18694 q 6.83789,-1.88526 18.39746,-4.2461 a 144.394,144.394 0 0 1 28.30469,-2.35839 q 13.91456,0 23.2334,4.00976 a 35.724,35.724 0 0 1 14.85937,11.43945 46.7354,46.7354 0 0 1 7.90235,17.8086 103.528,103.528 0 0 1 2.35839,22.8789 v 68.167 h -15.332 v -63.21289 a 115.49607,115.49607 0 0 0 -1.76855,-21.93653 36.64067,36.64067 0 0 0 -5.89649,-14.624 22.93876,22.93876 0 0 0 -10.85058,-8.1377 q -6.72217,-2.47558 -16.86426,-2.47656 a 129.12386,129.12386 0 0 0 -18.752,1.17969 q -7.90576,1.18212 -10.26075,2.123 v 107.085 h -15.33103 z"
       transform="translate(-124.03135,-117.69304)"
       id="path210" /><path
       class="cls-1"
       d="m 978.97607,323.94084 h 48.58983 v 12.97266 h -48.58983 v 64.86523 a 65.85091,65.85091 0 0 0 1.76953,16.86427 23.493,23.493 0 0 0 5.07129,10.02442 16.05181,16.05181 0 0 0 8.01953,4.71777 42.67072,42.67072 0 0 0 10.37788,1.17871 q 9.6695,0 15.5674,-2.24023 a 67.63988,67.63988 0 0 0 9.1992,-4.12793 l 3.7735,12.7373 q -3.3047,2.12256 -11.5576,4.835 a 57.20451,57.20451 0 0 1 -17.9258,2.71289 q -11.32179,0 -18.98731,-2.94824 a 27.438,27.438 0 0 1 -12.26563,-8.96289 36.72953,36.72953 0 0 1 -6.48633,-14.97852 104.05734,104.05734 0 0 1 -1.88671,-21.22851 V 288.08879 l 15.33105,-2.83056 z"
       transform="translate(-124.03135,-117.69304)"
       id="path212" /><path
       class="cls-1"
       d="m 1146.4429,441.64006 q -6.8438,1.89111 -18.3985,4.2461 a 144.432,144.432 0 0 1 -28.3037,2.35839 q -13.6831,0 -22.8799,-4.00976 a 37.13454,37.13454 0 0 1 -14.8603,-11.32129 45.84162,45.84162 0 0 1 -8.1367,-17.69043 98.55874,98.55874 0 0 1 -2.4766,-22.87988 v -68.40235 h 15.3311 v 63.44922 a 108.313,108.313 0 0 0 1.8867,21.93653 q 1.8852,8.96631 6.1328,14.50586 a 23.93445,23.93445 0 0 0 10.9678,8.01953 47.63573,47.63573 0 0 0 16.3935,2.47656 131.12928,131.12928 0 0 0 18.8692,-1.17969 q 8.017,-1.17772 10.1425,-2.12207 V 323.94084 h 15.332 z"
       transform="translate(-124.03135,-117.69304)"
       id="path214" /><rect
       class="cls-2"
       width="233.93118"
       height="360.27347"
       id="rect216"
       x="0"
       y="0" /><circle
       class="cls-3"
       cx="51.021111"
       cy="237.7972"
       r="24.5497"
       id="circle218" /><circle
       class="cls-3"
       cx="153.26149"
       cy="183.96622"
       r="24.5497"
       id="circle220" /><path
       class="cls-3"
       d="m 230.42052,418.67131 a 59.78848,59.78848 0 0 1 -40.772,-31.0957 35.34018,35.34018 0 0 1 -20.99024,2.58008 79.92109,79.92109 0 0 0 57.53955,48.22363 80.88379,80.88379 0 0 0 17.43262,1.79395 35.1274,35.1274 0 0 1 -7.188,-20.52539 c -2.02193,-0.22461 -4.04145,-0.55274 -6.02193,-0.97657 z"
       transform="translate(-124.03135,-117.69304)"
       id="path222" /><circle
       class="cls-3"
       cx="147.73055"
       cy="301.11368"
       r="24.5497"
       id="circle224" /><path
       class="cls-3"
       d="m 305.92394,409.78948 a 80.3186,80.3186 0 0 0 4.0249,-94.23828 35.38432,35.38432 0 0 1 -13.80518,16.168 60.18666,60.18666 0 0 1 -1.96728,59.78028 35.20475,35.20475 0 0 1 11.74756,18.29 z"
       transform="translate(-124.03135,-117.69304)"
       id="path226" /><path
       class="cls-3"
       d="m 173.15831,320.28362 q 0.93458,-0.0513 1.87012,-0.0508 a 35.42979,35.42979 0 0 1 18.61767,5.30175 59.87445,59.87445 0 0 1 48.2109,-25.78418 35.5969,35.5969 0 0 1 7.44776,-19.90966 80.69546,80.69546 0 0 0 -76.14645,40.44287 z"
       transform="translate(-124.03135,-117.69304)"
       id="path228" /></g><g
     transform="matrix(2.4536384,0,0,2.4536384,117.46501,59.111721)"
     id="g374"><linearGradient
       id="A"
       gradientUnits="userSpaceOnUse"
       x1="58.666"
       y1="117.332"
       x2="58.666"
       y2="0"><stop
         offset="0"
         stop-color="#0882c8"
         id="stop353" /><stop
         offset="1"
         stop-color="#26b6db"
         id="stop355" /></linearGradient><circle
       cx="58.700001"
       cy="58.700001"
       r="58.700001"
       fill="url(#A)"
       id="circle358"
       style="fill:url(#A)" /><circle
       cx="58.700001"
       cy="58.5"
       r="43.700001"
       fill="none"
       stroke="#ffffff"
       stroke-width="6"
       id="circle360" /><path
       d="m 94.7,47.8 c 4.7,1.6 9.8,-0.9 11.4,-5.6 1.6,-4.7 -0.9,-9.8 -5.6,-11.4 -4.7,-1.6 -9.8,0.9 -11.4,5.6 -1.6,4.7 0.9,9.8 5.6,11.4 z"
       fill="#ffffff"
       id="path362" /><path
       stroke-miterlimit="10"
       d="m 97.6,39.4 -30.1,25"
       fill="none"
       stroke="#ffffff"
       stroke-width="6"
       id="path364" /><path
       d="m 77.6,91 c -0.4,4.9 3.2,9.3 8.2,9.8 5,0.4 9.3,-3.2 9.8,-8.2 C 96,87.7 92.4,83.3 87.4,82.8 82.4,82.4 78,86 77.6,91 Z"
       fill="#ffffff"
       id="path366" /><path
       stroke-miterlimit="10"
       d="M 86.5,91.8 67.5,64.4"
       fill="none"
       stroke="#ffffff"
       stroke-width="6"
       id="path368" /><path
       d="m 60,69.3 c 2.7,4.2 8.3,5.4 12.4,2.7 4.2,-2.7 5.4,-8.3 2.7,-12.4 -2.7,-4.2 -8.3,-5.4 -12.4,-2.7 -4.2,2.6 -5.4,8.2 -2.7,12.4 z M 21.2,61.4 c -4.3,-2.5 -9.8,-1.1 -12.3,3.1 -2.5,4.3 -1.1,9.8 3.1,12.3 4.3,2.5 9.8,1.1 12.3,-3.1 2.5,-4.2 1.1,-9.7 -3.1,-12.3 z"
       fill="#ffffff"
       id="path370" /><path
       stroke-miterlimit="10"
       d="M 16.6,69.1 67.5,64.4"
       fill="none"
       stroke="#ffffff"
       stroke-width="6"
       id="path372" /></g></svg>
